# xmcd CD database file
#
# Track frame offsets:
#	150
#	23098
#	40861
#	76395
#	80177
#	89447
#	113789
#	128979
#	151910
#	168136
#
# Disc length: 2793 seconds
#
# Revision: 0
# Processed by: cddbd v1.5.1PL0 Copyright (c) Steve Scherf et al.
# Submitted via: CDex 1.51
#
DISCID=720ae70a
DTITLE=The Labcoats - Acid and Alkaline
DYEAR=2004
DGENRE=Jazz
TTITLE0=Dugout
TTITLE1=Wharf Protest
TTITLE2=Acid and Alkaline
TTITLE3=[unlisted]
TTITLE4=Surface Noise
TTITLE5=Ajax
TTITLE6=The Demons of Poneke
TTITLE7=Stale Smoke - Sweet Ferment
TTITLE8=Texas Daisychainsaw Massacre
TTITLE9=Wet Dreams
EXTD=YEAR: 2004
EXTT0=
EXTT1=
EXTT2=
EXTT3=
EXTT4=
EXTT5=
EXTT6=
EXTT7=
EXTT8=
EXTT9=
PLAYORDER=
